<?xml version="1.0" standalone="no"?>
<!DOCTYPE svg PUBLIC "-//W3C//DTD SVG 20010904//EN"
 "http://www.w3.org/TR/2001/REC-SVG-20010904/DTD/svg10.dtd">
<svg version="1.0" xmlns="http://www.w3.org/2000/svg"
 width="500.000000pt" height="500.000000pt" viewBox="0 0 500.000000 500.000000"
 preserveAspectRatio="xMidYMid meet">
<metadata>
Created by potrace 1.14, written by Peter Selinger 2001-2017
</metadata>
<g transform="translate(0.000000,500.000000) scale(0.100000,-0.100000)"
fill="#000000" stroke="none">
<path d="M3230 3531 c0 -13 -41 -80 -92 -149 -313 -432 -562 -885 -667 -1215
-32 -100 -63 -251 -52 -254 3 -1 18 -4 33 -7 17 -4 44 -28 74 -66 38 -49 52
-60 76 -60 16 0 40 -7 54 -16 20 -14 40 -16 107 -10 70 6 90 12 132 40 50 33
175 84 470 194 257 96 344 123 404 129 59 6 241 77 241 95 0 11 -13 9 -100
-16 -71 -20 -134 -21 -150 -1 -18 22 -7 28 53 29 32 1 67 9 92 22 22 11 72 31
110 44 136 44 245 105 245 136 0 18 -2 18 -61 -8 l-50 -21 -41 20 c-48 25 -54
24 -251 -53 -77 -30 -148 -54 -158 -54 -60 0 28 44 181 90 61 18 71 24 54 30
-15 6 -64 -4 -155 -32 -124 -37 -138 -39 -181 -28 -43 11 -52 9 -115 -17 l-68
-29 -34 23 c-48 32 -101 30 -261 -13 -195 -53 -180 -51 -180 -16 0 27 59 118
88 136 5 3 22 40 38 82 23 61 46 96 112 173 89 102 159 232 252 462 39 96 42
111 36 160 -14 113 -91 198 -193 215 -40 6 -43 5 -43 -15z m-150 -882 c0 -12
-7 -19 -20 -19 -23 0 -24 4 -9 31 12 23 29 16 29 -12z m-140 -201 c-1 -7 -11
-33 -24 -57 -29 -56 -45 -37 -21 25 15 40 46 62 45 32z m536 -153 c-22 -16
-46 -20 -46 -7 0 15 13 22 39 22 25 -1 25 -1 7 -15z m208 -144 c4 -5 -15 -16
-41 -24 -27 -9 -180 -59 -342 -112 -161 -53 -295 -94 -298 -92 -11 12 327 149
497 201 116 35 174 44 184 27z"/>
<path d="M2171 3508 c-48 -47 -143 -174 -203 -271 -114 -183 -196 -385 -342
-842 -119 -375 -146 -445 -241 -611 -141 -248 -211 -308 -305 -259 -62 32 -85
144 -56 268 27 114 51 158 107 197 l50 35 -5 75 c-13 191 -112 323 -247 332
l-43 3 -46 -91 c-68 -132 -83 -199 -88 -389 -3 -136 0 -174 17 -255 26 -116
101 -274 165 -346 89 -101 221 -168 354 -180 l68 -6 60 68 c161 184 282 372
368 572 37 85 30 108 -11 37 -26 -46 -34 -35 -30 38 4 59 15 72 51 56 20 -10
29 -10 38 -1 9 9 8 15 -6 25 -26 19 -14 56 17 50 17 -3 26 2 35 21 6 15 7 26
2 26 -20 0 -28 35 -18 80 5 25 11 64 13 87 4 61 11 67 50 37 l34 -25 10 38
c15 54 15 55 -19 48 -29 -6 -30 -5 -30 28 0 21 7 41 20 52 20 18 21 18 43 -3
40 -37 54 -29 60 36 7 82 42 164 92 220 27 30 55 78 74 126 50 124 90 197 146
261 79 92 85 103 85 165 0 60 -20 155 -45 216 -18 46 -99 104 -154 111 -31 4
-41 0 -70 -29z m-6 -734 c-8 -20 -15 -38 -15 -40 0 -2 -9 -4 -20 -4 -27 0 -25
12 6 49 35 42 48 39 29 -5z m-350 -701 c-6 -32 -8 -34 -22 -20 -14 13 -13 18
3 46 21 36 29 26 19 -26z m-177 -473 c-25 -34 -36 -37 -45 -14 -7 19 21 44 49
44 17 0 17 -2 -4 -30z m-48 -62 c0 -21 -71 -118 -86 -118 -20 0 -17 14 6 35
11 10 17 22 14 27 -6 10 43 68 58 68 4 0 8 -6 8 -12z m-106 -153 c-6 -15 -91
-75 -106 -75 -5 0 -8 12 -6 28 2 23 11 30 53 44 62 21 66 21 59 3z m-74 -100
c-7 -8 -17 -12 -22 -9 -5 3 -1 12 9 19 22 17 30 11 13 -10z"/>
<path d="M4173 2477 c-43 -16 -48 -24 -26 -36 15 -7 27 -5 51 9 55 34 39 50
-25 27z"/>
<path d="M3980 2460 c-20 -6 -22 -9 -9 -14 15 -7 69 8 69 19 0 7 -29 5 -60 -5z"/>
<path d="M4160 2303 c-87 -34 -142 -65 -133 -74 8 -8 38 2 105 34 62 30 85 45
68 45 -14 0 -32 -2 -40 -5z"/>
<path d="M1912 2203 c-16 -29 -26 -93 -14 -93 15 0 44 92 33 103 -6 6 -13 2
-19 -10z"/>
</g>
</svg>
